<svg width="36" height="36" viewBox="0 0 36 36" fill="none" xmlns="http://www.w3.org/2000/svg">
<path d="M21.375 15.75C22.0425 15.75 22.695 15.5521 23.25 15.1812C23.8051 14.8104 24.2376 14.2833 24.4931 13.6666C24.7485 13.0499 24.8154 12.3713 24.6852 11.7166C24.5549 11.0619 24.2335 10.4605 23.7615 9.98852C23.2895 9.51651 22.6881 9.19508 22.0334 9.06485C21.3787 8.93463 20.7001 9.00146 20.0834 9.25691C19.4667 9.51235 18.9396 9.94494 18.5688 10.5C18.1979 11.055 18 11.7075 18 12.375C18 13.2701 18.3556 14.1286 18.9885 14.7615C19.6214 15.3944 20.4799 15.75 21.375 15.75V15.75ZM21.375 11.25C21.5975 11.25 21.815 11.316 22 11.4396C22.185 11.5632 22.3292 11.7389 22.4144 11.9445C22.4995 12.15 22.5218 12.3762 22.4784 12.5945C22.435 12.8127 22.3278 13.0132 22.1705 13.1705C22.0132 13.3278 21.8127 13.435 21.5945 13.4784C21.3762 13.5218 21.15 13.4995 20.9445 13.4144C20.7389 13.3292 20.5632 13.185 20.4396 13C20.316 12.815 20.25 12.5975 20.25 12.375C20.25 12.0766 20.3685 11.7905 20.5795 11.5795C20.7905 11.3685 21.0766 11.25 21.375 11.25Z" fill="#1986A8"></path>
<path d="M29.25 4.5H6.75C6.15326 4.5 5.58097 4.73705 5.15901 5.15901C4.73705 5.58097 4.5 6.15326 4.5 6.75V29.25C4.5 29.8467 4.73705 30.419 5.15901 30.841C5.58097 31.2629 6.15326 31.5 6.75 31.5H29.25C29.8467 31.5 30.419 31.2629 30.841 30.841C31.2629 30.419 31.5 29.8467 31.5 29.25V6.75C31.5 6.15326 31.2629 5.58097 30.841 5.15901C30.419 4.73705 29.8467 4.5 29.25 4.5V4.5ZM29.25 29.25H6.75V22.5L12.375 16.875L18.6638 23.1638C19.0853 23.5828 19.6556 23.818 20.25 23.818C20.8444 23.818 21.4147 23.5828 21.8362 23.1638L23.625 21.375L29.25 27V29.25ZM29.25 23.8163L25.2112 19.7775C24.7897 19.3584 24.2194 19.1232 23.625 19.1232C23.0306 19.1232 22.4603 19.3584 22.0388 19.7775L20.25 21.5663L13.9612 15.2775C13.5397 14.8584 12.9694 14.6232 12.375 14.6232C11.7806 14.6232 11.2103 14.8584 10.7888 15.2775L6.75 19.3163V6.75H29.25V23.8163Z" fill="#1986A8"></path>
</svg>
