<svg width="36" height="36" viewBox="0 0 36 36" fill="none" xmlns="http://www.w3.org/2000/svg">
<path d="M33.75 3.84075L32.1593 2.25L2.25 32.1593L3.84075 33.75L6.09075 31.5H29.25C29.8465 31.4991 30.4182 31.2618 30.84 30.84C31.2618 30.4182 31.4991 29.8465 31.5 29.25V6.09075L33.75 3.84075ZM29.25 29.25H8.34075L17.1079 20.4829L19.7843 23.1593C20.2062 23.5811 20.7784 23.818 21.375 23.818C21.9716 23.818 22.5438 23.5811 22.9657 23.1593L24.75 21.375L29.25 25.8716V29.25ZM29.25 22.689L26.3407 19.7798C25.9188 19.3579 25.3466 19.121 24.75 19.121C24.1534 19.121 23.5812 19.3579 23.1593 19.7798L21.375 21.564L18.7009 18.8899L29.25 8.34075V22.689ZM6.75 24.75V21.375L12.375 15.7534L13.9196 17.2991L15.5126 15.7061L13.9657 14.1593C13.5438 13.7374 12.9716 13.5005 12.375 13.5005C11.7784 13.5005 11.2062 13.7374 10.7843 14.1593L6.75 18.1935V6.75H24.75V4.5H6.75C6.15345 4.5006 5.5815 4.73784 5.15967 5.15967C4.73784 5.5815 4.5006 6.15345 4.5 6.75V24.75H6.75Z" fill="#1986A8"/>
</svg>
