<svg width="36" height="36" viewBox="0 0 36 36" fill="none" xmlns="http://www.w3.org/2000/svg">
<path d="M21 14.415V10.5H24C25.65 10.5 27 9.15 27 7.5C27 5.85 25.65 4.5 24 4.5H19.5C18.675 4.5 18 5.175 18 6V11.415L21 14.415ZM7.67998 5.34C7.54111 5.20113 7.37624 5.09097 7.1948 5.01581C7.01335 4.94065 6.81888 4.90197 6.62248 4.90197C6.42609 4.90197 6.23162 4.94065 6.05017 5.01581C5.86872 5.09097 5.70386 5.20113 5.56498 5.34C5.42611 5.47887 5.31595 5.64374 5.24079 5.82519C5.16564 6.00663 5.12695 6.2011 5.12695 6.3975C5.12695 6.5939 5.16564 6.78837 5.24079 6.96981C5.31595 7.15126 5.42611 7.31613 5.56498 7.455L18 19.905V20.325C16.59 19.515 14.85 19.2 13.005 19.845C10.995 20.565 9.44998 22.35 9.08998 24.45C8.92356 25.3949 8.98576 26.3659 9.27139 27.2819C9.55702 28.1979 10.0578 29.0321 10.7318 29.715C11.4058 30.3978 12.2335 30.9093 13.1457 31.2068C14.0579 31.5043 15.028 31.5791 15.975 31.425C18.915 30.96 21 28.26 21 25.275V22.905L28.53 30.435C28.6689 30.5739 28.8337 30.684 29.0152 30.7592C29.1966 30.8343 29.3911 30.873 29.5875 30.873C29.7839 30.873 29.9784 30.8343 30.1598 30.7592C30.3412 30.684 30.5061 30.5739 30.645 30.435C30.7839 30.2961 30.894 30.1313 30.9692 29.9498C31.0443 29.7684 31.083 29.5739 31.083 29.3775C31.083 29.1811 31.0443 28.9866 30.9692 28.8052C30.894 28.6237 30.7839 28.4589 30.645 28.32L7.67998 5.34Z" fill="#1986A8"/>
</svg>
