<svg width="36" height="36" viewBox="0 0 36 36" fill="none" xmlns="http://www.w3.org/2000/svg">
<path d="M17.9999 7.5V20.325C16.5899 19.515 14.8499 19.2 13.0049 19.845C10.9949 20.565 9.44989 22.35 9.08989 24.45C8.92347 25.3949 8.98567 26.3659 9.2713 27.2819C9.55693 28.1979 10.0577 29.0321 10.7317 29.715C11.4057 30.3978 12.2334 30.9093 13.1456 31.2068C14.0578 31.5043 15.0279 31.5791 15.9749 31.425C18.9149 30.96 20.9999 28.26 20.9999 25.275V10.5H23.9999C25.6499 10.5 26.9999 9.15 26.9999 7.5C26.9999 5.85 25.6499 4.5 23.9999 4.5H20.9999C19.3499 4.5 17.9999 5.85 17.9999 7.5Z" fill="#1986A8"/>
</svg>
