<svg width="40" height="40" viewBox="0 0 48 48" fill="none" xmlns="http://www.w3.org/2000/svg">
<path d="M22.356 8.86198L4.35601 34.862C4.1484 35.162 4.02682 35.5132 4.00445 35.8774C3.98208 36.2415 4.05976 36.6049 4.22909 36.9281C4.39842 37.2513 4.65294 37.5221 4.9651 37.711C5.27725 37.8999 5.63514 37.9999 6.00002 38H42C42.3651 38.0002 42.7232 37.9006 43.0357 37.7118C43.3481 37.523 43.6029 37.2523 43.7725 36.929C43.942 36.6057 44.0199 36.2422 43.9976 35.8779C43.9753 35.5135 43.8537 35.1622 43.646 34.862L25.646 8.86198C25.4612 8.5971 25.2151 8.38078 24.9287 8.2314C24.6423 8.08203 24.324 8.00403 24.001 8.00403C23.678 8.00403 23.3598 8.08203 23.0734 8.2314C22.787 8.38078 22.5409 8.5971 22.356 8.86198V8.86198Z" fill="#F7F7F7"/>
</svg>
